<svg xmlns="http://www.w3.org/2000/svg" width="24.054" height="24.054" viewBox="0 0 24.054 24.054">
  <g id="call" transform="translate(0 0.811) rotate(-2)">
    <g id="Group_1187" data-name="Group 1187" transform="translate(0 0)">
      <path id="Path_427" data-name="Path 427" d="M21.39,15.265a13.2,13.2,0,0,1-4.147-.661,1.9,1.9,0,0,0-1.843.389l-2.615,1.974a14.451,14.451,0,0,1-6.5-6.5L8.2,7.924a1.88,1.88,0,0,0,.462-1.9A13.224,13.224,0,0,1,8,1.866,1.868,1.868,0,0,0,6.137,0H1.866A1.868,1.868,0,0,0,0,1.866a21.414,21.414,0,0,0,21.39,21.39,1.868,1.868,0,0,0,1.866-1.866V17.131A1.868,1.868,0,0,0,21.39,15.265Z" transform="translate(0 0)" fill="#0184f8"/>
    </g>
  </g>
</svg>
