<svg xmlns="http://www.w3.org/2000/svg" width="18.261" height="22.461" viewBox="0 0 18.261 22.461">
  <g id="sheet" transform="translate(0)">
    <g id="Group_1192" data-name="Group 1192" transform="translate(0)">
      <path id="Path_430" data-name="Path 430" d="M65.907,5.559,60.563.215A.742.742,0,0,0,60.045,0H48.593a.732.732,0,0,0-.732.732v21a.732.732,0,0,0,.732.732h16.8a.732.732,0,0,0,.732-.732V6.078A.742.742,0,0,0,65.907,5.559Zm-4.57,12.967H52.646a.732.732,0,1,1,0-1.465h8.691a.732.732,0,0,1,0,1.465Zm0-3.891H52.646a.732.732,0,1,1,0-1.465h8.691a.732.732,0,0,1,0,1.465Zm0-3.891H52.646a.732.732,0,1,1,0-1.465h8.691a.732.732,0,0,1,0,1.465Zm-.56-5.4V2.5l2.844,2.844Z" transform="translate(-47.861)" fill="#6a6a6a"/>
    </g>
  </g>
</svg>
