<svg id="whatsapp_4_" data-name="whatsapp (4)" xmlns="http://www.w3.org/2000/svg" width="23.852" height="23.852" viewBox="0 0 23.852 23.852">
  <path id="Path_428" data-name="Path 428" d="M11.929,0h-.006A11.919,11.919,0,0,0,2.27,18.917L.784,23.347l4.584-1.465A11.924,11.924,0,1,0,11.929,0Z" fill="#4caf50"/>
  <path id="Path_429" data-name="Path 429" d="M121.136,128.475a3.365,3.365,0,0,1-2.341,1.683c-.623.133-1.437.239-4.177-.9-3.5-1.452-5.762-5.013-5.938-5.245a6.811,6.811,0,0,1-1.416-3.6,3.807,3.807,0,0,1,1.219-2.9,1.733,1.733,0,0,1,1.219-.428c.148,0,.28.007.4.013.35.015.526.036.757.589.288.693.988,2.4,1.072,2.581a.71.71,0,0,1,.051.646,2.061,2.061,0,0,1-.386.547c-.176.2-.343.358-.519.575-.161.189-.343.392-.14.742a10.585,10.585,0,0,0,1.935,2.4,8.768,8.768,0,0,0,2.8,1.725.754.754,0,0,0,.841-.133,14.432,14.432,0,0,0,.932-1.234.666.666,0,0,1,.856-.259c.322.112,2.026.954,2.376,1.129s.581.259.666.407A2.97,2.97,0,0,1,121.136,128.475Z" transform="translate(-102.267 -111.633)" fill="#fafafa"/>
</svg>
