<svg xmlns="http://www.w3.org/2000/svg" width="24.996" height="24.996" viewBox="0 0 24.996 24.996">
  <g id="Group_1198" data-name="Group 1198" transform="translate(-312.515 -747.281)">
    <g id="Group_1197" data-name="Group 1197">
      <g id="Group_1196" data-name="Group 1196">
        <g id="Group_1195" data-name="Group 1195">
          <rect id="Rectangle_2" data-name="Rectangle 2" width="17.675" height="17.675" rx="1" transform="translate(325.013 747.281) rotate(45)" fill="#6a6a6a"/>
          <g id="reject" transform="translate(318.279 760.375) rotate(-45)">
            <g id="Group_1193" data-name="Group 1193" transform="translate(0 0)">
              <path id="Path_431" data-name="Path 431" d="M10.235,7.073a.431.431,0,0,1-.394.111L5.25,6.16a.432.432,0,0,1-.211-.727l.83-.83L4.752,3.486,2.033,6.2a.431.431,0,0,1-.611,0l-1.3-1.3a.431.431,0,0,1,.006-.616L4.452.121a.432.432,0,0,1,.605.006L7.7,2.771,8.743,1.728a.432.432,0,0,1,.73.225l.886,4.73A.429.429,0,0,1,10.235,7.073Z" transform="translate(0 0)" fill="#fff"/>
            </g>
          </g>
        </g>
      </g>
    </g>
  </g>
</svg>
